# xmcd CD database file
#
# Track frame offsets:
#	150
#	13860
#	29278
#	44558
#	66298
#	79418
#	101223
#	123131
#	139259
#	177014
#	197622
#	217067
#	235200
#	251920
#	264860
#	276295
#	285705
#	296347
#	311967
#	323782
#	335744
#
# Disc length: 4698 seconds
#
# Revision: 0
# Processed by: cddbd v1.5.1PL0 Copyright (c) Steve Scherf et al.
# Submitted via: CDex 1.51
#
DISCID=4e125815
DTITLE=Diversos - Zildo Selecao 03
DYEAR=2005
DGENRE=MPB
TTITLE0=Ciranda da bailarina-Oswaldo Montenegro
TTITLE1=A maca-Raul Seixas
TTITLE2=Desalento-Gal Costa
TTITLE3=Dia branco-Geraldo Azevedo
TTITLE4=E o mundo nao se acabou-Adriana Calcanhoto
TTITLE5=Fera ferida-Caetano Veloso
TTITLE6=Se eu quiser falar com Deus-Gilberto Gil
TTITLE7=How insensitive
TTITLE8=Yolanda/Pra quem merece amor-MPB 4
TTITLE9=You ve got a friend-James Taylor
TTITLE10=Ziguezagueou=Danilo Caymme
TTITLE11=Fulgas-Marina Lima
TTITLE12=Separacao-Vinicius
TTITLE13=Tatuagem-Chico Buarque
TTITLE14=Estacio Holly estacio-Luiz Melodia
TTITLE15=Praca Clovis-Chico
TTITLE16=La saeta-Juan Manoel Serrat
TTITLE17=Les feuilles mortes-Mireille Mathieu
TTITLE18=Solidao no peito-Novinho da Paraíba
TTITLE19=Vassourinhas-Ant Carlos Nobrega
TTITLE20=Bom demais-Alceu Valenca
EXTD=YEAR: 2005
EXTT0=
EXTT1=
EXTT2=
EXTT3=
EXTT4=
EXTT5=
EXTT6=
EXTT7=
EXTT8=
EXTT9=
EXTT10=
EXTT11=
EXTT12=
EXTT13=
EXTT14=
EXTT15=
EXTT16=
EXTT17=
EXTT18=
EXTT19=
EXTT20=
PLAYORDER=
